<?xml version="1.0" encoding="iso-8859-1"?>
<svg height="800px" width="800px" version="1.1" id="Layer_1" xmlns="http://www.w3.org/2000/svg" xmlns:xlink="http://www.w3.org/1999/xlink" 
	 viewBox="0 0 280.028 280.028" xml:space="preserve">
<g>
	<path style="fill:#BDC2C5;" d="M118.145,61.288l26.27-34.216l26.331,34.216h21.772l-35.73-46.467
		c-6.598-6.467-18.141-6.467-24.739,0l-0.805,0.901L96.259,61.288H118.145z"/>
	<path style="fill:#F5BB69;" d="M17.502,60.036h245.024c9.661,0,17.502,7.841,17.502,17.502v175.017
		c0,9.67-7.841,17.502-17.502,17.502H17.502C7.841,270.057,0,262.225,0,252.555V77.538C0,67.86,7.841,60.036,17.502,60.036z"/>
	<path style="fill:#37A18E;" d="M35.003,77.538h210.02c9.661,0,17.502,7.841,17.502,17.502v140.014
		c0,9.67-7.841,17.502-17.502,17.502H35.003c-9.661,0-17.502-7.832-17.502-17.502V95.04C17.502,85.361,25.342,77.538,35.003,77.538z
		"/>

	<svg viewBox="60.89 115.852 186.95 68.765" width="250" height="65" x="15" y="125" xmlns="http://www.w3.org/2000/svg">
		<path d="M 129.421 136.387 L 133.049 136.387 L 133.049 145.235 L 138.71 145.235 L 138.71 148.126 L 129.421 148.126 Z M 147.766 144.683 L 141.231 144.683 Q 141.32 145.467 141.656 145.852 Q 142.128 146.404 142.889 146.404 Q 143.37 146.404 143.802 146.164 Q 144.066 146.012 144.371 145.628 L 147.582 145.924 Q 146.845 147.205 145.804 147.762 Q 144.763 148.318 142.817 148.318 Q 141.127 148.318 140.158 147.842 Q 139.189 147.365 138.553 146.328 Q 137.916 145.291 137.916 143.89 Q 137.916 141.896 139.193 140.663 Q 140.471 139.43 142.721 139.43 Q 144.547 139.43 145.604 139.982 Q 146.661 140.535 147.213 141.584 Q 147.766 142.633 147.766 144.314 Z M 144.451 143.121 Q 144.355 142.176 143.942 141.768 Q 143.53 141.359 142.857 141.359 Q 142.08 141.359 141.616 141.976 Q 141.32 142.36 141.239 143.121 Z M 146.868 145.772 L 150.103 145.467 Q 150.303 146.044 150.663 146.292 Q 151.024 146.54 151.624 146.54 Q 152.281 146.54 152.641 146.26 Q 152.922 146.052 152.922 145.74 Q 152.922 145.387 152.553 145.195 Q 152.289 145.059 151.152 144.859 Q 149.454 144.563 148.794 144.31 Q 148.133 144.058 147.681 143.457 Q 147.228 142.857 147.228 142.088 Q 147.228 141.247 147.717 140.639 Q 148.205 140.03 149.062 139.73 Q 149.919 139.43 151.36 139.43 Q 152.882 139.43 153.606 139.662 Q 154.331 139.894 154.816 140.382 Q 155.3 140.871 155.62 141.704 L 152.529 142.008 Q 152.409 141.6 152.129 141.407 Q 151.745 141.151 151.2 141.151 Q 150.647 141.151 150.395 141.347 Q 150.143 141.544 150.143 141.824 Q 150.143 142.136 150.463 142.296 Q 150.784 142.456 151.857 142.585 Q 153.482 142.769 154.275 143.097 Q 155.068 143.425 155.488 144.034 Q 155.909 144.643 155.909 145.371 Q 155.909 146.108 155.464 146.805 Q 155.02 147.501 154.063 147.914 Q 153.106 148.326 151.456 148.326 Q 149.126 148.326 148.137 147.662 Q 147.148 146.997 146.868 145.772 Z M 155.068 145.772 L 158.303 145.467 Q 158.503 146.044 158.863 146.292 Q 159.224 146.54 159.824 146.54 Q 160.481 146.54 160.841 146.26 Q 161.122 146.052 161.122 145.74 Q 161.122 145.387 160.753 145.195 Q 160.489 145.059 159.352 144.859 Q 157.654 144.563 156.994 144.31 Q 156.333 144.058 155.881 143.457 Q 155.428 142.857 155.428 142.088 Q 155.428 141.247 155.917 140.639 Q 156.405 140.03 157.262 139.73 Q 158.119 139.43 159.56 139.43 Q 161.082 139.43 161.806 139.662 Q 162.531 139.894 163.015 140.382 Q 163.5 140.871 163.82 141.704 L 160.729 142.008 Q 160.609 141.6 160.329 141.407 Q 159.944 141.151 159.4 141.151 Q 158.847 141.151 158.595 141.347 Q 158.343 141.544 158.343 141.824 Q 158.343 142.136 158.663 142.296 Q 158.984 142.456 160.057 142.585 Q 161.682 142.769 162.475 143.097 Q 163.268 143.425 163.688 144.034 Q 164.109 144.643 164.109 145.371 Q 164.109 146.108 163.664 146.805 Q 163.22 147.501 162.263 147.914 Q 161.306 148.326 159.656 148.326 Q 157.326 148.326 156.337 147.662 Q 155.348 146.997 155.068 145.772 Z M 163.444 143.898 Q 163.444 141.952 164.757 140.691 Q 166.07 139.43 168.305 139.43 Q 170.859 139.43 172.164 140.911 Q 173.213 142.104 173.213 143.85 Q 173.213 145.812 171.912 147.065 Q 170.611 148.318 168.313 148.318 Q 166.263 148.318 164.997 147.277 Q 163.444 145.988 163.444 143.898 Z M 166.711 143.89 Q 166.711 145.027 167.172 145.572 Q 167.632 146.116 168.329 146.116 Q 169.033 146.116 169.486 145.58 Q 169.938 145.043 169.938 143.858 Q 169.938 142.753 169.482 142.212 Q 169.025 141.672 168.353 141.672 Q 167.64 141.672 167.176 142.22 Q 166.711 142.769 166.711 143.89 Z M 172.964 139.622 L 175.999 139.622 L 175.999 141.007 Q 176.68 140.158 177.376 139.794 Q 178.073 139.43 179.074 139.43 Q 180.427 139.43 181.192 140.234 Q 181.957 141.039 181.957 142.721 L 181.957 148.126 L 178.682 148.126 L 178.682 143.449 Q 178.682 142.649 178.385 142.316 Q 178.089 141.984 177.552 141.984 Q 176.96 141.984 176.591 142.432 Q 176.223 142.881 176.223 144.042 L 176.223 148.126 L 172.964 148.126 Z M 181.507 145.772 L 184.742 145.467 Q 184.942 146.044 185.303 146.292 Q 185.663 146.54 186.264 146.54 Q 186.92 146.54 187.281 146.26 Q 187.561 146.052 187.561 145.74 Q 187.561 145.387 187.193 145.195 Q 186.928 145.059 185.791 144.859 Q 184.094 144.563 183.433 144.31 Q 182.772 144.058 182.32 143.457 Q 181.867 142.857 181.867 142.088 Q 181.867 141.247 182.356 140.639 Q 182.844 140.03 183.701 139.73 Q 184.558 139.43 185.999 139.43 Q 187.521 139.43 188.246 139.662 Q 188.97 139.894 189.455 140.382 Q 189.939 140.871 190.26 141.704 L 187.169 142.008 Q 187.048 141.6 186.768 141.407 Q 186.384 141.151 185.839 141.151 Q 185.287 141.151 185.035 141.347 Q 184.782 141.544 184.782 141.824 Q 184.782 142.136 185.103 142.296 Q 185.423 142.456 186.496 142.585 Q 188.122 142.769 188.914 143.097 Q 189.707 143.425 190.127 144.034 Q 190.548 144.643 190.548 145.371 Q 190.548 146.108 190.103 146.805 Q 189.659 147.501 188.702 147.914 Q 187.745 148.326 186.096 148.326 Q 183.765 148.326 182.776 147.662 Q 181.787 146.997 181.507 145.772 Z" transform="matrix(3.060781, 0, 0, 3.767803, -331.563599, -386.345367)" style="fill: #dcf131; white-space: pre;"/>
	</svg>
</g>
</svg>